<?xml version="1.0" encoding="utf-8"?>
<!-- Generator: Adobe Illustrator 22.1.0, SVG Export Plug-In . SVG Version: 6.00 Build 0)  -->
<svg version="1.1" id="Layer_1" xmlns="http://www.w3.org/2000/svg" xmlns:xlink="http://www.w3.org/1999/xlink" x="0px" y="0px"
	 viewBox="0 0 707.4 133.2" style="enable-background:new 0 0 707.4 133.2;" xml:space="preserve">
<style type="text/css">
	.st0{fill:none;}
</style>
<path d="M81,34.6c-0.2,4.4-1,9-2.2,13.5c-1,3.7-2.1,7.3-3.1,10.9c-0.6,2.1-0.3,4.2,0.6,6.3c2.6,5.8,5.1,11.6,7.6,17.5
	c1.5,3.7,1.8,7.8,2.2,11.7c0.6,5.7,0.6,11.5,0.1,17.2c-0.4,4-2.3,5.1-5.9,3.2c-4.2-2.3-6.9-6-8.6-10.4c-2.2-5.8-4.2-11.7-6.5-17.5
	c-1.4-3.6-3.4-6.8-6.4-9.4c-2.7-2.3-5.6-2.7-8.9-1.1c-5.1,2.5-7.5,6.6-8.4,12c-0.9,5.1,0.2,10,1.1,15c0.5,3.1,1,6.2,1.3,9.4
	c0.2,2.2-0.5,3.1-1.9,3.5c-1.3,0.4-2.8-0.5-3.8-1.9c-3.5-5.1-5.1-10.9-6.6-16.7c-1-3.9-1.6-8-2.5-11.9c-1.3-5.8-3.5-11.3-6.8-16.3
	c-2.1-3.2-4.3-6.4-6.2-9.7c-1.6-2.8-2.8-5.8-4-8.8c-1.2-2.8-1-5.8-0.3-8.7c2-8.2,9.1-14.6,17.5-15.8c3.5-0.5,6.9-0.2,10,1.6
	c2.5,1.5,4.7,0.9,7-0.7c5.4-3.9,11.1-7.4,17.7-9.1c2.2-0.6,4.7-0.4,7-0.4c1.8,0.1,3.2,1.1,4.5,2.2c3.5,3.1,5.1,7,5.5,11.5
	C80.9,32.5,81,33.4,81,34.6z"/>
<path d="M103.3,56.7c-0.2,16.2-0.4,32.5-0.6,48.7c-0.1,8.5-0.3,17-0.4,25.5c0,1.9-0.4,2.3-2.4,2.3c-8.7,0-17.4,0-26.2,0
	c-5.9,0-11.8,0-17.6,0c-1.9,0-2.4-0.5-2.1-2.3c0.7-3.5-0.3-6.9-0.6-10.4c-1-9.9-2-19.9-1.8-29.9c0-1.8,0.4-3.4,1.6-4.8
	c1-1.2,1.8-1.2,3.1-0.3c3.2,2.2,4.8,5.5,6.1,9c1.7,4.5,3.4,9.1,4.8,13.7c1.6,5,3.9,9.5,6.8,13.8c3.1,4.6,8.1,5.5,12.8,2.6
	c2.2-1.4,3.9-3.3,5-5.7c2-4.5,2.7-9.2,2.4-14c-0.4-5.6-0.6-11.3-2-16.8c-1.8-6.9-4.1-13.7-8.4-19.6c-1.6-2.2-2-4.5-1.3-7
	c0.7-2.6,1.6-5.1,2.5-7.6c1.6-4.6,2-9.4,2.9-14.1c1.2-6.4,1.5-12.9,1-19.3c-0.4-4.6-2.6-8.2-6.7-10.4c-7.2-4-14.9-4.4-22.8-2.6
	c-4.3,1-8,3-11.5,5.5c-4.7,3.3-9.9,5.3-15.4,6.2c-3.1,0.5-6.2,0.6-9.3,0.6c-6.9,0-13.6,1.2-20.1,3.5c-1.9,0.7-2.6,0.2-2.5-1.9
	C0.7,16.3,1,11.2,1.1,6.2c0-1.4,0-2.9,0-4.3S1.5,0,2.9,0c0.8,0,1.6,0,2.4,0c31.6,0,63.2,0,94.8,0c3.4,0,3.4,0,3.4,3.4
	c0,17.8,0,35.5,0,53.3C103.4,56.7,103.4,56.7,103.3,56.7z"/>
<path d="M0,105c0.1-8.2,0.3-16.4,0.4-24.6c0.1-4.3,0.1-8.5,0.2-12.8c0-0.2-0.1-0.5,0-0.7c0.2-0.4,0.3-1,0.7-1.2
	c0.3-0.1,0.9,0.2,1.2,0.5c0.5,0.5,0.9,1.1,1.3,1.7c2,3.3,4.3,6.3,7.2,8.8c3.6,3.3,5,7.3,5.5,12.1c0.5,5.5,1.3,11,2.4,16.5
	c1,5.2,4.4,9.3,7.6,13.4c3.5,4.4,7.2,8.5,11.4,12.1c0.5,0.5,0.9,1.2,1.3,1.8c-0.7,0.2-1.5,0.6-2.2,0.6c-11.4,0-22.8,0-34.2,0
	c-2.2,0-2.6-0.4-2.6-2.6c0-8.6,0-17.1,0-25.7C0.1,105,0.1,105,0,105z"/>
<path d="M210.7,50.1c0,1.1,0,2,0,2.8c0,10.3,0,20.6,0,30.9c0,1.7-0.4,2.4-2.2,2.3c-3.2-0.1-6.3,0-9.8,0c0-12.1,0-23.9,0-35.9
	c-3,0-5.7,0-8.7,0c0-4,0-7.8,0-11.9c2.9,0,5.6,0,8.6,0c0-12,0-23.8,0-35.8c0.9-0.1,1.6-0.2,2.3-0.2c14.3,0,28.5,0,42.8,0
	c11.9,0,21.8,9.1,23.4,21.4c1.4,11.3-6.4,22.8-17.6,25.6c-1.8,0.5-3.8,0.6-5.9,1c5.8,11.8,11.7,23.6,17.7,35.7
	c-4.8,0-9.1,0.1-13.5-0.1c-0.6,0-1.3-1.1-1.7-1.9c-5.5-10.7-11-21.3-16.4-32c-0.7-1.5-1.6-2-3.2-2C221.2,50.1,216.1,50.1,210.7,50.1
	z M210.8,38.1c0.8,0,1.5,0.1,2.1,0.1c10,0,20,0,30,0c6.9,0,12.2-5.3,12.3-12c0-6.8-5.3-12-12.2-12c-10,0-20,0-30,0
	c-0.7,0-1.4,0-2.2,0C210.8,22.3,210.8,30.1,210.8,38.1z"/>
<path d="M282.2,50c-3.1,0-5.9,0-8.9,0c0-3.7,0-7.3,0.1-10.8c0-0.4,1-1,1.6-1c2.3-0.1,4.6,0,7.1,0c0-12,0-23.8,0-35.7
	c22.9,0,45.5,0,68.3,0c0,6.9,0,13.7,0,20.7c-3.9,0-7.7,0-11.8,0c0-3,0-5.9,0-8.9c-14.9,0-29.6,0-44.4,0c0,7.9,0,15.8,0,23.9
	c7.9,0,15.6,0,23.5,0c0,4,0,7.7,0,11.7c-7.8,0-15.5,0-23.5,0c0,8.1,0,16,0,24.1c14.7,0,29.4,0,44.4,0c0-3,0-5.9,0-8.9
	c4,0,7.8,0,11.8,0c0.1,0.5,0.2,1,0.2,1.6c0,5.8,0,11.6,0,17.5c0,1.5-0.5,1.9-2,1.9c-21.5,0-43,0-64.5,0c-1.6,0-2-0.5-2-2.1
	c0.1-10.4,0-20.7,0-31.1C282.2,52,282.2,51.2,282.2,50z"/>
<path d="M707.4,2.5c0,7,0,13.7,0,20.7c-3.9,0-7.8,0-11.9,0c0-3,0-5.9,0-8.9c-14.9,0-29.6,0-44.4,0c0,7.9,0,15.8,0,23.9
	c7.8,0,15.6,0,23.5,0c0,4,0,7.7,0,11.7c-7.8,0-15.5,0-23.5,0c0,8.1,0,16,0,24.1c14.8,0,29.5,0,44.4,0c0-3,0-5.9,0-8.9
	c4,0,7.8,0,11.8,0c0,6.8,0,13.7,0,20.8c-0.6,0.1-1.3,0.2-2,0.2c-21.4,0-42.7,0-64.1,0c-1.8,0-2.3-0.5-2.3-2.3
	c0.1-10.3,0-20.6,0-30.9c0-0.8,0-1.7,0-2.8c-3,0-5.8,0-8.8,0c0-3.8,0-7.3,0.1-10.8c0-0.4,0.9-1,1.4-1c2.3-0.1,4.7,0,7.3,0
	c0-11.9,0-23.7,0-35.7C661.9,2.5,684.5,2.5,707.4,2.5z"/>
<path d="M441,85.7c-4.5,0-8.4,0.1-12.4-0.1c-0.6,0-1.3-1-1.6-1.7c-3.3-6.5-6.5-13.1-9.6-19.7c-0.7-1.5-1.5-2.2-3.3-2.2
	c-9.8,0.1-19.6,0.1-29.4,0c-1.5,0-2.3,0.5-2.9,1.8c-3.2,6.6-6.6,13.2-9.8,19.8c-0.7,1.5-1.6,2.1-3.3,2c-3.5-0.1-6.9,0-10.8,0
	c3.9-8,7.7-15.6,11.7-23.6c-1.6,0-2.9-0.1-4.1,0c-1.3,0.1-1.7-0.5-1.7-1.7c0.1-2.8,0.1-5.7,0-8.5c0-1.2,0.4-1.6,1.6-1.6
	c2.7,0,5.4-0.2,8.1,0c1.7,0.1,2.5-0.6,3.2-2.1C383.8,33.5,391,19,398.2,4.4c0.3-0.7,0.7-1.3,1.3-2.5C413.3,30,427,57.6,441,85.7z
	 M410.5,50c-3.7-7.7-7.3-15.1-11.1-22.9c-3.8,7.9-7.3,15.3-11,22.9C395.8,50,403,50,410.5,50z"/>
<path d="M184.5,13.6c-2.9,2.5-5.8,5-8.7,7.6c-6.4-6.3-14.8-8.9-24.2-7.8c-8.3,1-14.9,5.2-20.2,11.5c-9.9,11.8-9,29.5,2.1,40.9
	c12.2,12.5,31.1,12.1,42.6,1.7c2.7,2.6,5.4,5.2,8.1,7.8c-5.4,7.1-21.6,14.6-38.4,10.8c-17.3-3.8-31.5-19.8-33-37.4
	c-1.6-19.5,8.8-37.1,26.3-44.2C154.5-2,174.7,1.9,184.5,13.6z"/>
<path d="M470.2,14.3c-6,0-11.8,0-17.7,0c0,2.9,0,5.8,0,8.9c-4,0-7.9,0-11.9,0c0-6.9,0-13.7,0-20.7c23.7,0,47.3,0,71.1,0
	c0,6.9,0,13.8,0,20.8c-3.9,0-7.7,0-11.7,0c0-3,0-5.9,0-8.9c-6,0-11.8,0-17.8,0c0,23.7,0,47.5,0,71.7c-2.8,0-5.4,0-8,0
	c-4.1,0-4.1,0-4.1-4c0-21.6,0-43.3,0-64.9C470.2,16.2,470.2,15.3,470.2,14.3z"/>
<path d="M542.1,2.3c4.3,0,8.1-0.1,12,0.1c0.7,0,1.6,0.8,1.9,1.5c6.3,12.8,12.5,25.7,18.8,38.6c2.9,6,5.8,12,8.9,18.3
	c0.4-0.8,0.8-1.4,1.1-2c8.8-18.1,17.6-36.2,26.4-54.3c0.8-1.6,1.6-2.3,3.5-2.2c3.4,0.2,6.8,0,10.7,0c-13.9,28-27.6,55.6-41.6,83.8
	C569.8,58,556.1,30.4,542.1,2.3z"/>
<path d="M521.9,2.4c4,0,7.8,0,11.7,0c0,27.8,0,55.5,0,83.5c-3.6,0-7.2,0-10.7-0.1c-0.4,0-0.8-0.7-1.1-1.1c-0.2-0.3,0-0.7,0-1
	c0-26.4,0-52.8,0-79.2C521.9,3.9,521.9,3.3,521.9,2.4z"/>
<path d="M682.7,131.4c-4.3,0-8.6,0-13,0c-5.7-0.1-7.7-2-7.7-7.7c-0.1-6.9-0.1-13.8,0-20.7c0.1-5.6,2-7.5,7.7-7.5
	c8.6-0.1,17.3-0.1,25.9,0c5.7,0,7.6,1.9,7.7,7.5c0.1,7,0.1,14,0,21c-0.1,5.6-2,7.5-7.6,7.5C691.4,131.5,687.1,131.4,682.7,131.4z
	 M697.3,100.4c-0.2-0.1-0.4-0.2-0.5-0.2c-9.2,0-18.3,0-27.5-0.1c-1.4,0-1.4,0.9-1.4,1.9c0,7.5,0,15,0,22.5c0,1.3,0.3,1.8,1.7,1.8
	c8.7,0,17.4,0,26.2,0c1.3,0,1.7-0.5,1.7-1.8c0-7.6,0-15.1,0-22.7C697.5,101.3,697.4,100.8,697.3,100.4z"/>
<path d="M436.3,110.5c7.2,0,14.1,0,21.1,0c7.9,0,9.5,1.6,9.5,9.5c0,2.4-0.1,4.7-0.5,7.1c-0.3,2.1-1.7,3.5-3.8,3.9
	c-1.3,0.3-2.7,0.4-4.1,0.4c-6.9,0-13.8,0-20.8,0c-6.7,0-9-2.7-8.2-9.7c1.6-0.4,3.3-0.8,5.4-1.3c0,1.6,0,2.8,0,4.1
	c-0.1,1.1,0.3,1.7,1.6,1.7c8,0,16,0,24-0.1c0.2,0,0.4-0.1,0.8-0.2c0-3.2,0-6.5,0-10.1c-0.7,0-1.5-0.1-2.2-0.1
	c-6.8,0-13.7,0-20.5-0.1c-5.7-0.1-7.5-1.8-7.7-7.5c-0.1-2.7,0-5.3,0.3-8s1.8-4.1,4.5-4.6c1.1-0.2,2.3-0.3,3.4-0.3
	c6.3,0,12.5-0.1,18.8,0c1.6,0,3.3,0.2,4.9,0.6c2.6,0.7,4.6,4.8,3.7,7.2c-0.1,0.4-0.6,0.8-1.1,0.9c-1.2,0.4-2.5,0.7-4,1.1
	c0-1.8,0-3.3,0-5c-8.4,0-16.6,0-25,0C436.3,103.5,436.3,106.9,436.3,110.5z"/>
<path d="M582,95.7c0.2-0.1,0.4-0.2,0.6-0.2c8.6,0.1,17.2-0.1,25.7,0.5c7.9,0.6,13.3,6.4,14,14.3c0.3,3.2,0,6.5-0.8,9.6
	c-1.8,6.5-6.4,10.6-13.2,11c-8.7,0.6-17.4,0.5-26.3,0.8C582,119.4,582,107.5,582,95.7z M587.9,99.7c0,9.2,0,17.7,0,26.4
	c5.1,0,10.2,0.2,15.2,0c10.5-0.6,14.1-4.8,13.3-15.3c-0.4-5.3-3-9-8.2-9.7C601.5,100.1,594.8,100.1,587.9,99.7z"/>
<path d="M112.3,131.5c0-11.9,0-23.8,0-35.5c0.2-0.2,0.3-0.3,0.4-0.3c8.9,0.1,17.7,0,26.5,0.5c5.8,0.3,10,3.8,12.2,9.2
	c2.5,6.1,2.3,12.2-0.8,18.1c-2.9,5.4-7.7,7.8-13.6,8C128.9,131.6,120.7,131.5,112.3,131.5z M118.2,127c6.7-0.3,13.1-0.3,19.5-0.9
	c4.4-0.4,7.7-3,8.6-7.5c0.5-2.8,0.7-5.8,0.4-8.6c-0.7-5.8-4-9-9.8-9.6c-4.2-0.5-8.5-0.4-12.7-0.5c-6-0.1-6,0-6,6
	C118.2,112.8,118.2,119.6,118.2,127z"/>
<path d="M222.6,103.8c0,9.2,0,18.4,0,27.7c-1.8,0-3.5,0-5.3,0c0-11.9,0-23.7,0-35.5c2.1-0.5,3.8-0.2,5.4,1.3
	c8.2,7.5,16.5,14.8,24.8,22.2c1.3,1.2,2.7,2.3,3.7,3.2c0-2.3,0-5,0-7.7c0-5.6,0.1-11.2,0-16.8c0-1.9,0.4-2.8,2.5-2.5
	c0.9,0.1,1.9,0,3,0c0,12.1,0,23.9,0,35.6c-2.1,0.6-3.6,0.1-5.1-1.4c-9.5-8.8-19-17.4-28.5-26.1C223,103.9,222.8,103.9,222.6,103.8z"
	/>
<path d="M531.6,126.1c8.7,0,17.1,0,25.9,0c0-10.1,0-20.3,0-30.7c1.8,0,3.4-0.1,5,0.1c0.4,0.1,1,1.2,1,1.8c0.1,7.2,0.1,14.4,0,21.6
	c0,2.4-0.1,4.8-0.3,7.1c-0.4,3.2-1.7,4.5-4.9,5.1c-1,0.2-2,0.2-3,0.3c-7.1,0-14.3,0-21.4,0c-1.4,0-2.7-0.2-4.1-0.5
	c-1.8-0.4-3-1.6-3.6-3.4c-0.2-0.8-0.5-1.7-0.5-2.5c0-9.7,0-19.5,0-29.4c1.9,0,3.8,0,5.9,0C531.6,105.8,531.6,115.8,531.6,126.1z"/>
<path d="M202.6,95.7c0,1.4,0,2.6,0,4c-0.9,0-1.8,0.1-2.6,0.1c-7.9,0-15.8,0-23.7,0c-1.6,0-2.3,0.4-2.2,2.1c0.1,2.7,0,5.5,0,8.6
	c5.8,0,11.5,0,17.3,0c0,1.6,0,2.8,0,4.4c-5.7,0-11.3,0-17.2,0c0,4.1,0,7.8,0,11.8c9.5,0,19,0,28.5,0c0,1.7,0,3.1,0,4.7
	c-11.5,0-22.9,0-34.5,0c0-11.9,0-23.7,0-35.8C179.7,95.7,191.1,95.7,202.6,95.7z"/>
<path d="M309.2,131.6c3.7-6.9,7.2-13.3,10.7-19.6c2.6-4.8,5.3-9.6,7.9-14.5c0.7-1.3,1.5-1.9,3-1.7c0.7,0.1,1.4,0.1,2,0
	c1.8-0.3,2.8,0.6,3.6,2.1c5.8,10.6,11.7,21.1,17.5,31.6c0.3,0.6,0.6,1.2,1,2.1c-2.1,0-3.9,0.1-5.8-0.1c-0.5,0-1.1-0.7-1.4-1.2
	c-1.1-2.1-2.1-4.3-3.3-6.3c-0.4-0.7-1.5-1.4-2.3-1.5c-7-0.1-14-0.1-21,0c-0.8,0-1.8,0.7-2.2,1.3c-1.1,1.8-2.1,3.8-2.9,5.8
	c-0.6,1.5-1.5,2.2-3.2,2C311.9,131.5,310.8,131.6,309.2,131.6z M331.9,99.9c-3.3,6.3-6.3,12.1-9.5,18.1c6.6,0,12.6,0,19,0
	C338.2,111.9,335.1,106.1,331.9,99.9z"/>
<path d="M492.9,100.1c-5.6,0-10.8,0-16.2,0c0-1.6,0-3,0-4.5c12.7,0,25.4,0,38.3,0c0,1.4,0,2.8,0,4.5c-2,0-4.2,0-6.3,0
	c-2.7,0-5.3,0.1-8,0c-1.5-0.1-2,0.5-2,2c0.1,8.8,0,17.6,0,26.4c0,3,0,3-3,3c-0.9,0-1.7,0-2.9,0C492.9,120.9,492.9,110.6,492.9,100.1
	z"/>
<path d="M283.8,99.9c-5.6,0-10.8,0-16.3,0c0-1.5,0-2.8,0-4.2c12.8,0,25.6,0,38.5,0c0,1.4,0,2.6,0,4.2c-5.4,0-10.7,0-16.3,0
	c0,5.5,0,10.7,0,15.8c0,5.2,0,10.4,0,15.8c-2,0-3.8,0-5.9,0C283.8,121.1,283.8,110.6,283.8,99.9z"/>
<path d="M366.7,131.5c0-6.2,0-12.2,0-18.1c0-5.1,0-10.3,0-15.4c0-1.5,0.4-2.1,2-2.1c4.8,0.1,4-0.5,4,4c0,8.1,0,16.1,0,24.2
	c0,0.8,0,1.6,0,2.7c7.3,0,14.5,0,21.7,0c0,1.7,0,3.2,0,4.8C385.3,131.5,376.2,131.5,366.7,131.5z"/>
<path d="M644,131c-0.4,0.2-0.5,0.3-0.5,0.3c-5.4,0.6-5.4,0.6-5.4-4.8c0-9.5,0-19,0-28.5c0-1.9,0.4-2.5,2.4-2.4
	c4.1,0.2,3.6-0.4,3.6,3.6c0,9.9,0,19.7,0,29.6C644,129.5,644,130.3,644,131z"/>
<path class="st0" d="M211.3,38.1c0-8,0-15.8,0-23.9c0.8,0,1.5,0,2.2,0c10,0,20,0,30,0c6.9,0,12.2,5.3,12.2,12s-5.4,12-12.3,12
	c-10,0-20,0-30,0C212.8,38.2,212.1,38.1,211.3,38.1z"/>
<path class="st0" d="M410.9,50c-7.5,0-14.6,0-22.1,0c3.7-7.6,7.2-15,11-22.9C403.6,34.9,407.1,42.3,410.9,50z"/>
<path class="st0" d="M697.3,100.3c0.1,0.4,0.2,0.9,0.2,1.4c0,7.6,0,15.1,0,22.7c0,1.3-0.4,1.8-1.7,1.8c-8.7,0-17.4,0-26.2,0
	c-1.4,0-1.7-0.5-1.7-1.8c0-7.5,0-15,0-22.5c0-1,0-1.9,1.4-1.9c9.1,0,18.3,0,27.4,0.1C696.9,100.1,697.1,100.2,697.3,100.3z"/>
<path class="st0" d="M588,99.7c6.9,0.4,13.6,0.4,20.3,1.3c5.2,0.7,7.8,4.5,8.2,9.7c0.8,10.4-2.8,14.7-13.3,15.3c-5,0.3-10,0-15.2,0
	C588,117.4,588,108.8,588,99.7z"/>
<path class="st0" d="M118.4,127c0-7.4,0-14.3,0-21.1c0-6.1,0-6.1,6-6c4.2,0.1,8.5,0,12.7,0.5c5.8,0.6,9.1,3.8,9.8,9.6
	c0.3,2.8,0.2,5.8-0.4,8.6c-0.9,4.6-4.2,7.1-8.6,7.5C131.5,126.7,125.1,126.7,118.4,127z"/>
<path class="st0" d="M331.8,99.9c3.3,6.2,6.3,12,9.5,18.1c-6.3,0-12.4,0-19,0C325.5,112,328.5,106.2,331.8,99.9z"/>
</svg>
