<svg xmlns="http://www.w3.org/2000/svg" viewBox="0 0 1024 180"><style type="text/css">  
	.st0{fill:none;}
</style><path d="M238.6 58.9c-0.2 4.4-1 9-2.2 13.5 -1 3.7-2.1 7.3-3.1 10.9 -0.6 2.1-0.3 4.2 0.6 6.3 2.6 5.8 5.1 11.6 7.6 17.5 1.5 3.7 1.8 7.8 2.2 11.7 0.6 5.7 0.6 11.5 0.1 17.2 -0.4 4-2.3 5.1-5.9 3.2 -4.2-2.3-6.9-6-8.6-10.4 -2.2-5.8-4.2-11.7-6.5-17.5 -1.4-3.6-3.4-6.8-6.4-9.4 -2.7-2.3-5.6-2.7-8.9-1.1 -5.1 2.5-7.5 6.6-8.4 12 -0.9 5.1 0.2 10 1.1 15 0.5 3.1 1 6.2 1.3 9.4 0.2 2.2-0.5 3.1-1.9 3.5 -1.3 0.4-2.8-0.5-3.8-1.9 -3.5-5.1-5.1-10.9-6.6-16.7 -1-3.9-1.6-8-2.5-11.9 -1.3-5.8-3.5-11.3-6.8-16.3 -2.1-3.2-4.3-6.4-6.2-9.7 -1.6-2.8-2.8-5.8-4-8.8 -1.2-2.8-1-5.8-0.3-8.7 2-8.2 9.1-14.6 17.5-15.8 3.5-0.5 6.9-0.2 10 1.6 2.5 1.5 4.7 0.9 7-0.7 5.4-3.9 11.1-7.4 17.7-9.1 2.2-0.6 4.7-0.4 7-0.4 1.8 0.1 3.2 1.1 4.5 2.2 3.5 3.1 5.1 7 5.5 11.5C238.5 56.8 238.6 57.7 238.6 58.9z"/><path d="M260.9 81c-0.2 16.2-0.4 32.5-0.6 48.7 -0.1 8.5-0.3 17-0.4 25.5 0 1.9-0.4 2.3-2.4 2.3 -8.7 0-17.4 0-26.2 0 -5.9 0-11.8 0-17.6 0 -1.9 0-2.4-0.5-2.1-2.3 0.7-3.5-0.3-6.9-0.6-10.4 -1-9.9-2-19.9-1.8-29.9 0-1.8 0.4-3.4 1.6-4.8 1-1.2 1.8-1.2 3.1-0.3 3.2 2.2 4.8 5.5 6.1 9 1.7 4.5 3.4 9.1 4.8 13.7 1.6 5 3.9 9.5 6.8 13.8 3.1 4.6 8.1 5.5 12.8 2.6 2.2-1.4 3.9-3.3 5-5.7 2-4.5 2.7-9.2 2.4-14 -0.4-5.6-0.6-11.3-2-16.8 -1.8-6.9-4.1-13.7-8.4-19.6 -1.6-2.2-2-4.5-1.3-7 0.7-2.6 1.6-5.1 2.5-7.6 1.6-4.6 2-9.4 2.9-14.1 1.2-6.4 1.5-12.9 1-19.3 -0.4-4.6-2.6-8.2-6.7-10.4 -7.2-4-14.9-4.4-22.8-2.6 -4.3 1-8 3-11.5 5.5 -4.7 3.3-9.9 5.3-15.4 6.2 -3.1 0.5-6.2 0.6-9.3 0.6 -6.9 0-13.6 1.2-20.1 3.5 -1.9 0.7-2.6 0.2-2.5-1.9 0.1-5.1 0.4-10.2 0.5-15.2 0-1.4 0-2.9 0-4.3 0-1.4 0.4-1.9 1.8-1.9 0.8 0 1.6 0 2.4 0 31.6 0 63.2 0 94.8 0 3.4 0 3.4 0 3.4 3.4 0 17.8 0 35.5 0 53.3C261 81 261 81 260.9 81z"/><path d="M157.6 129.3c0.1-8.2 0.3-16.4 0.4-24.6 0.1-4.3 0.1-8.5 0.2-12.8 0-0.2-0.1-0.5 0-0.7 0.2-0.4 0.3-1 0.7-1.2 0.3-0.1 0.9 0.2 1.2 0.5 0.5 0.5 0.9 1.1 1.3 1.7 2 3.3 4.3 6.3 7.2 8.8 3.6 3.3 5 7.3 5.5 12.1 0.5 5.5 1.3 11 2.4 16.5 1 5.2 4.4 9.3 7.6 13.4 3.5 4.4 7.2 8.5 11.4 12.1 0.5 0.5 0.9 1.2 1.3 1.8 -0.7 0.2-1.5 0.6-2.2 0.6 -11.4 0-22.8 0-34.2 0 -2.2 0-2.6-0.4-2.6-2.6 0-8.6 0-17.1 0-25.7C157.7 129.3 157.7 129.3 157.6 129.3z"/><path d="M368.3 74.4c0 1.1 0 2 0 2.8 0 10.3 0 20.6 0 30.9 0 1.7-0.4 2.4-2.2 2.3 -3.2-0.1-6.3 0-9.8 0 0-12.1 0-23.9 0-35.9 -3 0-5.7 0-8.7 0 0-4 0-7.8 0-11.9 2.9 0 5.6 0 8.6 0 0-12 0-23.8 0-35.8 0.9-0.1 1.6-0.2 2.3-0.2 14.3 0 28.5 0 42.8 0 11.9 0 21.8 9.1 23.4 21.4 1.4 11.3-6.4 22.8-17.6 25.6 -1.8 0.5-3.8 0.6-5.9 1 5.8 11.8 11.7 23.6 17.7 35.7 -4.8 0-9.1 0.1-13.5-0.1 -0.6 0-1.3-1.1-1.7-1.9 -5.5-10.7-11-21.3-16.4-32 -0.7-1.5-1.6-2-3.2-2C378.8 74.4 373.7 74.4 368.3 74.4zM368.4 62.4c0.8 0 1.5 0.1 2.1 0.1 10 0 20 0 30 0 6.9 0 12.2-5.3 12.3-12 0-6.8-5.3-12-12.2-12 -10 0-20 0-30 0 -0.7 0-1.4 0-2.2 0C368.4 46.6 368.4 54.4 368.4 62.4z"/><path d="M439.8 74.3c-3.1 0-5.9 0-8.9 0 0-3.7 0-7.3 0.1-10.8 0-0.4 1-1 1.6-1 2.3-0.1 4.6 0 7.1 0 0-12 0-23.8 0-35.7 22.9 0 45.5 0 68.3 0 0 6.9 0 13.7 0 20.7 -3.9 0-7.7 0-11.8 0 0-3 0-5.9 0-8.9 -14.9 0-29.6 0-44.4 0 0 7.9 0 15.8 0 23.9 7.9 0 15.6 0 23.5 0 0 4 0 7.7 0 11.7 -7.8 0-15.5 0-23.5 0 0 8.1 0 16 0 24.1 14.7 0 29.4 0 44.4 0 0-3 0-5.9 0-8.9 4 0 7.8 0 11.8 0 0.1 0.5 0.2 1 0.2 1.6 0 5.8 0 11.6 0 17.5 0 1.5-0.5 1.9-2 1.9 -21.5 0-43 0-64.5 0 -1.6 0-2-0.5-2-2.1 0.1-10.4 0-20.7 0-31.1C439.8 76.3 439.8 75.5 439.8 74.3z"/><path d="M865 26.8c0 7 0 13.7 0 20.7 -3.9 0-7.8 0-11.9 0 0-3 0-5.9 0-8.9 -14.9 0-29.6 0-44.4 0 0 7.9 0 15.8 0 23.9 7.8 0 15.6 0 23.5 0 0 4 0 7.7 0 11.7 -7.8 0-15.5 0-23.5 0 0 8.1 0 16 0 24.1 14.8 0 29.5 0 44.4 0 0-3 0-5.9 0-8.9 4 0 7.8 0 11.8 0 0 6.8 0 13.7 0 20.8 -0.6 0.1-1.3 0.2-2 0.2 -21.4 0-42.7 0-64.1 0 -1.8 0-2.3-0.5-2.3-2.3 0.1-10.3 0-20.6 0-30.9 0-0.8 0-1.7 0-2.8 -3 0-5.8 0-8.8 0 0-3.8 0-7.3 0.1-10.8 0-0.4 0.9-1 1.4-1 2.3-0.1 4.7 0 7.3 0 0-11.9 0-23.7 0-35.7C819.5 26.8 842.1 26.8 865 26.8z"/><path d="M598.6 110c-4.5 0-8.4 0.1-12.4-0.1 -0.6 0-1.3-1-1.6-1.7 -3.3-6.5-6.5-13.1-9.6-19.7 -0.7-1.5-1.5-2.2-3.3-2.2 -9.8 0.1-19.6 0.1-29.4 0 -1.5 0-2.3 0.5-2.9 1.8 -3.2 6.6-6.6 13.2-9.8 19.8 -0.7 1.5-1.6 2.1-3.3 2 -3.5-0.1-6.9 0-10.8 0 3.9-8 7.7-15.6 11.7-23.6 -1.6 0-2.9-0.1-4.1 0 -1.3 0.1-1.7-0.5-1.7-1.7 0.1-2.8 0.1-5.7 0-8.5 0-1.2 0.4-1.6 1.6-1.6 2.7 0 5.4-0.2 8.1 0 1.7 0.1 2.5-0.6 3.2-2.1 7.1-14.6 14.3-29.1 21.5-43.7 0.3-0.7 0.7-1.3 1.3-2.5C570.9 54.3 584.6 81.9 598.6 110zM568.1 74.3c-3.7-7.7-7.3-15.1-11.1-22.9 -3.8 7.9-7.3 15.3-11 22.9C553.4 74.3 560.6 74.3 568.1 74.3z"/><path d="M342.1 37.9c-2.9 2.5-5.8 5-8.7 7.6 -6.4-6.3-14.8-8.9-24.2-7.8 -8.3 1-14.9 5.2-20.2 11.5 -9.9 11.8-9 29.5 2.1 40.9 12.2 12.5 31.1 12.1 42.6 1.7 2.7 2.6 5.4 5.2 8.1 7.8 -5.4 7.1-21.6 14.6-38.4 10.8 -17.3-3.8-31.5-19.8-33-37.4 -1.6-19.5 8.8-37.1 26.3-44.2C312.1 22.3 332.3 26.2 342.1 37.9z"/><path d="M627.8 38.6c-6 0-11.8 0-17.7 0 0 2.9 0 5.8 0 8.9 -4 0-7.9 0-11.9 0 0-6.9 0-13.7 0-20.7 23.7 0 47.3 0 71.1 0 0 6.9 0 13.8 0 20.8 -3.9 0-7.7 0-11.7 0 0-3 0-5.9 0-8.9 -6 0-11.8 0-17.8 0 0 23.7 0 47.5 0 71.7 -2.8 0-5.4 0-8 0 -4.1 0-4.1 0-4.1-4 0-21.6 0-43.3 0-64.9C627.8 40.5 627.8 39.6 627.8 38.6z"/><path d="M699.7 26.6c4.3 0 8.1-0.1 12 0.1 0.7 0 1.6 0.8 1.9 1.5 6.3 12.8 12.5 25.7 18.8 38.6 2.9 6 5.8 12 8.9 18.3 0.4-0.8 0.8-1.4 1.1-2 8.8-18.1 17.6-36.2 26.4-54.3 0.8-1.6 1.6-2.3 3.5-2.2 3.4 0.2 6.8 0 10.7 0 -13.9 28-27.6 55.6-41.6 83.8C727.4 82.3 713.7 54.7 699.7 26.6z"/><path d="M679.5 26.7c4 0 7.8 0 11.7 0 0 27.8 0 55.5 0 83.5 -3.6 0-7.2 0-10.7-0.1 -0.4 0-0.8-0.7-1.1-1.1 -0.2-0.3 0-0.7 0-1 0-26.4 0-52.8 0-79.2C679.5 28.2 679.5 27.6 679.5 26.7z"/><path d="M840.3 155.7c-4.3 0-8.6 0-13 0 -5.7-0.1-7.7-2-7.7-7.7 -0.1-6.9-0.1-13.8 0-20.7 0.1-5.6 2-7.5 7.7-7.5 8.6-0.1 17.3-0.1 25.9 0 5.7 0 7.6 1.9 7.7 7.5 0.1 7 0.1 14 0 21 -0.1 5.6-2 7.5-7.6 7.5C849 155.8 844.7 155.7 840.3 155.7zM854.9 124.7c-0.2-0.1-0.4-0.2-0.5-0.2 -9.2 0-18.3 0-27.5-0.1 -1.4 0-1.4 0.9-1.4 1.9 0 7.5 0 15 0 22.5 0 1.3 0.3 1.8 1.7 1.8 8.7 0 17.4 0 26.2 0 1.3 0 1.7-0.5 1.7-1.8 0-7.6 0-15.1 0-22.7C855.1 125.6 855 125.1 854.9 124.7z"/><path d="M593.9 134.8c7.2 0 14.1 0 21.1 0 7.9 0 9.5 1.6 9.5 9.5 0 2.4-0.1 4.7-0.5 7.1 -0.3 2.1-1.7 3.5-3.8 3.9 -1.3 0.3-2.7 0.4-4.1 0.4 -6.9 0-13.8 0-20.8 0 -6.7 0-9-2.7-8.2-9.7 1.6-0.4 3.3-0.8 5.4-1.3 0 1.6 0 2.8 0 4.1 -0.1 1.1 0.3 1.7 1.6 1.7 8 0 16 0 24-0.1 0.2 0 0.4-0.1 0.8-0.2 0-3.2 0-6.5 0-10.1 -0.7 0-1.5-0.1-2.2-0.1 -6.8 0-13.7 0-20.5-0.1 -5.7-0.1-7.5-1.8-7.7-7.5 -0.1-2.7 0-5.3 0.3-8 0.3-2.7 1.8-4.1 4.5-4.6 1.1-0.2 2.3-0.3 3.4-0.3 6.3 0 12.5-0.1 18.8 0 1.6 0 3.3 0.2 4.9 0.6 2.6 0.7 4.6 4.8 3.7 7.2 -0.1 0.4-0.6 0.8-1.1 0.9 -1.2 0.4-2.5 0.7-4 1.1 0-1.8 0-3.3 0-5 -8.4 0-16.6 0-25 0C593.9 127.8 593.9 131.2 593.9 134.8z"/><path d="M739.6 120c0.2-0.1 0.4-0.2 0.6-0.2 8.6 0.1 17.2-0.1 25.7 0.5 7.9 0.6 13.3 6.4 14 14.3 0.3 3.2 0 6.5-0.8 9.6 -1.8 6.5-6.4 10.6-13.2 11 -8.7 0.6-17.4 0.5-26.3 0.8C739.6 143.7 739.6 131.8 739.6 120zM745.5 124c0 9.2 0 17.7 0 26.4 5.1 0 10.2 0.2 15.2 0 10.5-0.6 14.1-4.8 13.3-15.3 -0.4-5.3-3-9-8.2-9.7C759.1 124.4 752.4 124.4 745.5 124z"/><path d="M269.9 155.8c0-11.9 0-23.8 0-35.5 0.2-0.2 0.3-0.3 0.4-0.3 8.9 0.1 17.7 0 26.5 0.5 5.8 0.3 10 3.8 12.2 9.2 2.5 6.1 2.3 12.2-0.8 18.1 -2.9 5.4-7.7 7.8-13.6 8C286.5 155.9 278.3 155.8 269.9 155.8zM275.8 151.3c6.7-0.3 13.1-0.3 19.5-0.9 4.4-0.4 7.7-3 8.6-7.5 0.5-2.8 0.7-5.8 0.4-8.6 -0.7-5.8-4-9-9.8-9.6 -4.2-0.5-8.5-0.4-12.7-0.5 -6-0.1-6 0-6 6C275.8 137.1 275.8 143.9 275.8 151.3z"/><path d="M380.2 128.1c0 9.2 0 18.4 0 27.7 -1.8 0-3.5 0-5.3 0 0-11.9 0-23.7 0-35.5 2.1-0.5 3.8-0.2 5.4 1.3 8.2 7.5 16.5 14.8 24.8 22.2 1.3 1.2 2.7 2.3 3.7 3.2 0-2.3 0-5 0-7.7 0-5.6 0.1-11.2 0-16.8 0-1.9 0.4-2.8 2.5-2.5 0.9 0.1 1.9 0 3 0 0 12.1 0 23.9 0 35.6 -2.1 0.6-3.6 0.1-5.1-1.4 -9.5-8.8-19-17.4-28.5-26.1C380.6 128.2 380.4 128.2 380.2 128.1z"/><path d="M689.2 150.4c8.7 0 17.1 0 25.9 0 0-10.1 0-20.3 0-30.7 1.8 0 3.4-0.1 5 0.1 0.4 0.1 1 1.2 1 1.8 0.1 7.2 0.1 14.4 0 21.6 0 2.4-0.1 4.8-0.3 7.1 -0.4 3.2-1.7 4.5-4.9 5.1 -1 0.2-2 0.2-3 0.3 -7.1 0-14.3 0-21.4 0 -1.4 0-2.7-0.2-4.1-0.5 -1.8-0.4-3-1.6-3.6-3.4 -0.2-0.8-0.5-1.7-0.5-2.5 0-9.7 0-19.5 0-29.4 1.9 0 3.8 0 5.9 0C689.2 130.1 689.2 140.1 689.2 150.4z"/><path d="M360.2 120c0 1.4 0 2.6 0 4 -0.9 0-1.8 0.1-2.6 0.1 -7.9 0-15.8 0-23.7 0 -1.6 0-2.3 0.4-2.2 2.1 0.1 2.7 0 5.5 0 8.6 5.8 0 11.5 0 17.3 0 0 1.6 0 2.8 0 4.4 -5.7 0-11.3 0-17.2 0 0 4.1 0 7.8 0 11.8 9.5 0 19 0 28.5 0 0 1.7 0 3.1 0 4.7 -11.5 0-22.9 0-34.5 0 0-11.9 0-23.7 0-35.8C337.3 120 348.7 120 360.2 120z"/><path d="M466.8 155.9c3.7-6.9 7.2-13.3 10.7-19.6 2.6-4.8 5.3-9.6 7.9-14.5 0.7-1.3 1.5-1.9 3-1.7 0.7 0.1 1.4 0.1 2 0 1.8-0.3 2.8 0.6 3.6 2.1 5.8 10.6 11.7 21.1 17.5 31.6 0.3 0.6 0.6 1.2 1 2.1 -2.1 0-3.9 0.1-5.8-0.1 -0.5 0-1.1-0.7-1.4-1.2 -1.1-2.1-2.1-4.3-3.3-6.3 -0.4-0.7-1.5-1.4-2.3-1.5 -7-0.1-14-0.1-21 0 -0.8 0-1.8 0.7-2.2 1.3 -1.1 1.8-2.1 3.8-2.9 5.8 -0.6 1.5-1.5 2.2-3.2 2C469.5 155.8 468.4 155.9 466.8 155.9zM489.5 124.2c-3.3 6.3-6.3 12.1-9.5 18.1 6.6 0 12.6 0 19 0C495.8 136.2 492.7 130.4 489.5 124.2z"/><path d="M650.5 124.4c-5.6 0-10.8 0-16.2 0 0-1.6 0-3 0-4.5 12.7 0 25.4 0 38.3 0 0 1.4 0 2.8 0 4.5 -2 0-4.2 0-6.3 0 -2.7 0-5.3 0.1-8 0 -1.5-0.1-2 0.5-2 2 0.1 8.8 0 17.6 0 26.4 0 3 0 3-3 3 -0.9 0-1.7 0-2.9 0C650.5 145.2 650.5 134.9 650.5 124.4z"/><path d="M441.4 124.2c-5.6 0-10.8 0-16.3 0 0-1.5 0-2.8 0-4.2 12.8 0 25.6 0 38.5 0 0 1.4 0 2.6 0 4.2 -5.4 0-10.7 0-16.3 0 0 5.5 0 10.7 0 15.8 0 5.2 0 10.4 0 15.8 -2 0-3.8 0-5.9 0C441.4 145.4 441.4 134.9 441.4 124.2z"/><path d="M524.3 155.8c0-6.2 0-12.2 0-18.1 0-5.1 0-10.3 0-15.4 0-1.5 0.4-2.1 2-2.1 4.8 0.1 4-0.5 4 4 0 8.1 0 16.1 0 24.2 0 0.8 0 1.6 0 2.7 7.3 0 14.5 0 21.7 0 0 1.7 0 3.2 0 4.8C542.9 155.8 533.8 155.8 524.3 155.8z"/><path d="M801.6 155.3c-0.4 0.2-0.5 0.3-0.5 0.3 -5.4 0.6-5.4 0.6-5.4-4.8 0-9.5 0-19 0-28.5 0-1.9 0.4-2.5 2.4-2.4 4.1 0.2 3.6-0.4 3.6 3.6 0 9.9 0 19.7 0 29.6C801.6 153.8 801.6 154.6 801.6 155.3z"/><path class="st0" d="M368.9 62.4c0-8 0-15.8 0-23.9 0.8 0 1.5 0 2.2 0 10 0 20 0 30 0 6.9 0 12.2 5.3 12.2 12 0 6.7-5.4 12-12.3 12 -10 0-20 0-30 0C370.4 62.5 369.7 62.4 368.9 62.4z"/><path class="st0" d="M568.5 74.3c-7.5 0-14.6 0-22.1 0 3.7-7.6 7.2-15 11-22.9C561.2 59.2 564.7 66.6 568.5 74.3z"/><path class="st0" d="M854.9 124.6c0.1 0.4 0.2 0.9 0.2 1.4 0 7.6 0 15.1 0 22.7 0 1.3-0.4 1.8-1.7 1.8 -8.7 0-17.4 0-26.2 0 -1.4 0-1.7-0.5-1.7-1.8 0-7.5 0-15 0-22.5 0-1 0-1.9 1.4-1.9 9.1 0 18.3 0 27.4 0.1C854.5 124.4 854.7 124.5 854.9 124.6z"/><path class="st0" d="M745.6 124c6.9 0.4 13.6 0.4 20.3 1.3 5.2 0.7 7.8 4.5 8.2 9.7 0.8 10.4-2.8 14.7-13.3 15.3 -5 0.3-10 0-15.2 0C745.6 141.7 745.6 133.1 745.6 124z"/><path class="st0" d="M276 151.3c0-7.4 0-14.3 0-21.1 0-6.1 0-6.1 6-6 4.2 0.1 8.5 0 12.7 0.5 5.8 0.6 9.1 3.8 9.8 9.6 0.3 2.8 0.2 5.8-0.4 8.6 -0.9 4.6-4.2 7.1-8.6 7.5C289.1 151 282.7 151 276 151.3z"/><path class="st0" d="M489.4 124.2c3.3 6.2 6.3 12 9.5 18.1 -6.3 0-12.4 0-19 0C483.1 136.3 486.1 130.5 489.4 124.2z"/></svg>