<?xml version="1.0" encoding="utf-8"?>
<!-- Generator: Adobe Illustrator 22.1.0, SVG Export Plug-In . SVG Version: 6.00 Build 0)  -->
<svg version="1.1" id="Layer_1" xmlns="http://www.w3.org/2000/svg" xmlns:xlink="http://www.w3.org/1999/xlink" x="0px" y="0px"
	 viewBox="0 0 486.5 91.6" style="enable-background:new 0 0 486.5 91.6;" xml:space="preserve">
<style type="text/css">
	.st0{fill:none;}
</style>
<path d="M55.7,23.8c-0.1,3-0.7,6.2-1.5,9.3c-0.7,2.5-1.4,5-2.1,7.5c-0.4,1.4-0.2,2.9,0.4,4.3c1.8,4,3.5,8,5.2,12
	c1,2.5,1.2,5.4,1.5,8c0.4,3.9,0.4,7.9,0.1,11.8c-0.3,2.8-1.6,3.5-4.1,2.2c-2.9-1.6-4.7-4.1-5.9-7.2c-1.5-4-2.9-8-4.5-12
	c-1-2.5-2.3-4.7-4.4-6.5c-1.9-1.6-3.9-1.9-6.1-0.8c-3.5,1.7-5.2,4.5-5.8,8.3c-0.6,3.5,0.1,6.9,0.8,10.3c0.3,2.1,0.7,4.3,0.9,6.5
	c0.1,1.5-0.3,2.1-1.3,2.4c-0.9,0.3-1.9-0.3-2.6-1.3c-2.4-3.5-3.5-7.5-4.5-11.5c-0.7-2.7-1.1-5.5-1.7-8.2c-0.9-4-2.4-7.8-4.7-11.2
	c-1.4-2.2-3-4.4-4.3-6.7c-1.1-1.9-1.9-4-2.8-6.1c-0.8-1.9-0.7-4-0.2-6c1.4-5.6,6.3-10,12-10.9c2.4-0.3,4.7-0.1,6.9,1.1
	c1.7,1,3.2,0.6,4.8-0.5c3.7-2.7,7.6-5.1,12.2-6.3c1.5-0.4,3.2-0.3,4.8-0.3c1.2,0.1,2.2,0.8,3.1,1.5c2.4,2.1,3.5,4.8,3.8,7.9
	C55.6,22.4,55.7,23,55.7,23.8z"/>
<path d="M71,39c-0.1,11.1-0.3,22.4-0.4,33.5c-0.1,5.8-0.2,11.7-0.3,17.5c0,1.3-0.3,1.6-1.7,1.6c-6,0-12,0-18,0c-4.1,0-8.1,0-12.1,0
	c-1.3,0-1.7-0.3-1.4-1.6c0.5-2.4-0.2-4.7-0.4-7.2c-0.7-6.8-1.4-13.7-1.2-20.6c0-1.2,0.3-2.3,1.1-3.3c0.7-0.8,1.2-0.8,2.1-0.2
	c2.2,1.5,3.3,3.8,4.2,6.2c1.2,3.1,2.3,6.3,3.3,9.4c1.1,3.4,2.7,6.5,4.7,9.5c2.1,3.2,5.6,3.8,8.8,1.8c1.5-1,2.7-2.3,3.4-3.9
	c1.4-3.1,1.9-6.3,1.7-9.6c-0.3-3.9-0.4-7.8-1.4-11.6c-1.2-4.7-2.8-9.4-5.8-13.5c-1.1-1.5-1.4-3.1-0.9-4.8c0.5-1.8,1.1-3.5,1.7-5.2
	c1.1-3.2,1.4-6.5,2-9.7c0.8-4.4,1-8.9,0.7-13.3c-0.3-3.2-1.8-5.6-4.6-7.2c-5-2.8-10.2-3-15.7-1.8c-3,0.7-5.5,2.1-7.9,3.8
	c-3.2,2.3-6.8,3.6-10.6,4.3c-2.1,0.3-4.3,0.4-6.4,0.4c-4.7,0-9.4,0.8-13.8,2.4c-1.3,0.5-1.8,0.1-1.7-1.3c0.1-3.5,0.3-7,0.3-10.5
	c0-1,0-2,0-3S1,0,2,0c0.6,0,1.1,0,1.7,0c21.7,0,43.5,0,65.2,0c2.3,0,2.3,0,2.3,2.3c0,12.2,0,24.4,0,36.7C71.1,39,71.1,39,71,39z"/>
<path d="M0,72.2c0.1-5.6,0.2-11.3,0.3-16.9c0.1-3,0.1-5.8,0.1-8.8c0-0.1-0.1-0.3,0-0.5c0.1-0.3,0.2-0.7,0.5-0.8
	c0.2-0.1,0.6,0.1,0.8,0.3c0.3,0.3,0.6,0.8,0.9,1.2c1.4,2.3,3,4.3,5,6.1c2.5,2.3,3.4,5,3.8,8.3c0.3,3.8,0.9,7.6,1.7,11.3
	c0.7,3.6,3,6.4,5.2,9.2c2.4,3,5,5.8,7.8,8.3c0.3,0.3,0.6,0.8,0.9,1.2c-0.5,0.1-1,0.4-1.5,0.4c-7.8,0-15.7,0-23.5,0
	c-1.5,0-1.8-0.3-1.8-1.8c0-5.9,0-11.8,0-17.7C0.1,72.2,0.1,72.2,0,72.2z"/>
<path d="M144.9,34.5c0,0.8,0,1.4,0,1.9c0,7.1,0,14.2,0,21.3c0,1.2-0.3,1.7-1.5,1.6c-2.2-0.1-4.3,0-6.7,0c0-8.3,0-16.4,0-24.7
	c-2.1,0-3.9,0-6,0c0-2.8,0-5.4,0-8.2c2,0,3.9,0,5.9,0c0-8.3,0-16.4,0-24.6c0.6-0.1,1.1-0.1,1.6-0.1c9.8,0,19.6,0,29.4,0
	c8.2,0,15,6.3,16.1,14.7c1,7.8-4.4,15.7-12.1,17.6c-1.2,0.3-2.6,0.4-4.1,0.7c4,8.1,8,16.2,12.2,24.6c-3.3,0-6.3,0.1-9.3-0.1
	c-0.4,0-0.9-0.8-1.2-1.3c-3.8-7.4-7.6-14.6-11.3-22c-0.5-1-1.1-1.4-2.2-1.4C152.1,34.5,148.6,34.5,144.9,34.5z M145,26.2
	c0.6,0,1,0.1,1.4,0.1c6.9,0,13.8,0,20.6,0c4.7,0,8.4-3.6,8.5-8.3c0-4.7-3.6-8.3-8.4-8.3c-6.9,0-13.8,0-20.6,0c-0.5,0-1,0-1.5,0
	C145,15.3,145,20.7,145,26.2z"/>
<path d="M194.1,34.4c-2.1,0-4.1,0-6.1,0c0-2.5,0-5,0.1-7.4c0-0.3,0.7-0.7,1.1-0.7c1.6-0.1,3.2,0,4.9,0c0-8.3,0-16.4,0-24.6
	c15.7,0,31.3,0,47,0c0,4.7,0,9.4,0,14.2c-2.7,0-5.3,0-8.1,0c0-2.1,0-4.1,0-6.1c-10.2,0-20.4,0-30.5,0c0,5.4,0,10.9,0,16.4
	c5.4,0,10.7,0,16.2,0c0,2.8,0,5.3,0,8c-5.4,0-10.7,0-16.2,0c0,5.6,0,11,0,16.6c10.1,0,20.2,0,30.5,0c0-2.1,0-4.1,0-6.1
	c2.8,0,5.4,0,8.1,0c0.1,0.3,0.1,0.7,0.1,1.1c0,4,0,8,0,12c0,1-0.3,1.3-1.4,1.3c-14.8,0-29.6,0-44.4,0c-1.1,0-1.4-0.3-1.4-1.4
	c0.1-7.2,0-14.2,0-21.4C194.1,35.8,194.1,35.2,194.1,34.4z"/>
<path d="M486.5,1.7c0,4.8,0,9.4,0,14.2c-2.7,0-5.4,0-8.2,0c0-2.1,0-4.1,0-6.1c-10.2,0-20.4,0-30.5,0c0,5.4,0,10.9,0,16.4
	c5.4,0,10.7,0,16.2,0c0,2.8,0,5.3,0,8c-5.4,0-10.7,0-16.2,0c0,5.6,0,11,0,16.6c10.2,0,20.3,0,30.5,0c0-2.1,0-4.1,0-6.1
	c2.8,0,5.4,0,8.1,0c0,4.7,0,9.4,0,14.3c-0.4,0.1-0.9,0.1-1.4,0.1c-14.7,0-29.4,0-44.1,0c-1.2,0-1.6-0.3-1.6-1.6
	c0.1-7.1,0-14.2,0-21.3c0-0.6,0-1.2,0-1.9c-2.1,0-4,0-6.1,0c0-2.6,0-5,0.1-7.4c0-0.3,0.6-0.7,1-0.7c1.6-0.1,3.2,0,5,0
	c0-8.2,0-16.3,0-24.6C455.2,1.7,470.8,1.7,486.5,1.7z"/>
<path d="M303.3,58.9c-3.1,0-5.8,0.1-8.5-0.1c-0.4,0-0.9-0.7-1.1-1.2c-2.3-4.5-4.5-9-6.6-13.5c-0.5-1-1-1.5-2.3-1.5
	c-6.7,0.1-13.5,0.1-20.2,0c-1,0-1.6,0.3-2,1.2c-2.2,4.5-4.5,9.1-6.7,13.6c-0.5,1-1.1,1.4-2.3,1.4c-2.4-0.1-4.7,0-7.4,0
	c2.7-5.5,5.3-10.7,8-16.2c-1.1,0-2-0.1-2.8,0c-0.9,0.1-1.2-0.3-1.2-1.2c0.1-1.9,0.1-3.9,0-5.8c0-0.8,0.3-1.1,1.1-1.1
	c1.9,0,3.7-0.1,5.6,0c1.2,0.1,1.7-0.4,2.2-1.4c4.9-10,9.8-20,14.8-30.1c0.2-0.5,0.5-0.9,0.9-1.7C284.2,20.6,293.7,39.6,303.3,58.9z
	 M282.3,34.4c-2.5-5.3-5-10.4-7.6-15.7c-2.6,5.4-5,10.5-7.6,15.7C272.2,34.4,277.2,34.4,282.3,34.4z"/>
<path d="M126.9,9.4c-2,1.7-4,3.4-6,5.2c-4.4-4.3-10.2-6.1-16.6-5.4c-5.7,0.7-10.2,3.6-13.9,7.9c-6.8,8.1-6.2,20.3,1.4,28.1
	c8.4,8.6,21.4,8.3,29.3,1.2c1.9,1.8,3.7,3.6,5.6,5.4c-3.7,4.9-14.9,10-26.4,7.4c-11.9-2.6-21.7-13.6-22.7-25.7
	C76.5,20.1,83.6,8,95.7,3.1C106.3-1.4,120.1,1.3,126.9,9.4z"/>
<path d="M323.4,9.8c-4.1,0-8.1,0-12.2,0c0,2,0,4,0,6.1c-2.8,0-5.4,0-8.2,0c0-4.7,0-9.4,0-14.2c16.3,0,32.5,0,48.9,0
	c0,4.7,0,9.5,0,14.3c-2.7,0-5.3,0-8,0c0-2.1,0-4.1,0-6.1c-4.1,0-8.1,0-12.2,0c0,16.3,0,32.7,0,49.3c-1.9,0-3.7,0-5.5,0
	c-2.8,0-2.8,0-2.8-2.8c0-14.9,0-29.8,0-44.6C323.4,11.1,323.4,10.5,323.4,9.8z"/>
<path d="M372.8,1.6c3,0,5.6-0.1,8.3,0.1c0.5,0,1.1,0.6,1.3,1c4.3,8.8,8.6,17.7,12.9,26.5c2,4.1,4,8.3,6.1,12.6
	c0.3-0.6,0.6-1,0.8-1.4c6.1-12.4,12.1-24.9,18.2-37.3c0.6-1.1,1.1-1.6,2.4-1.5c2.3,0.1,4.7,0,7.4,0c-9.6,19.3-19,38.2-28.6,57.6
	C391.9,39.9,382.5,20.9,372.8,1.6z"/>
<path d="M358.9,1.7c2.8,0,5.4,0,8,0c0,19.1,0,38.2,0,57.4c-2.5,0-5,0-7.4-0.1c-0.3,0-0.6-0.5-0.8-0.8c-0.1-0.2,0-0.5,0-0.7
	c0-18.2,0-36.3,0-54.5C358.9,2.7,358.9,2.3,358.9,1.7z"/>
<path d="M469.5,90.4c-3,0-5.9,0-8.9,0c-3.9-0.1-5.3-1.4-5.3-5.3c-0.1-4.7-0.1-9.5,0-14.2c0.1-3.9,1.4-5.2,5.3-5.2
	c5.9-0.1,11.9-0.1,17.8,0c3.9,0,5.2,1.3,5.3,5.2c0.1,4.8,0.1,9.6,0,14.4c-0.1,3.9-1.4,5.2-5.2,5.2C475.5,90.4,472.6,90.4,469.5,90.4
	z M479.6,69.1c-0.1-0.1-0.3-0.1-0.3-0.1c-6.3,0-12.6,0-18.9-0.1c-1,0-1,0.6-1,1.3c0,5.2,0,10.3,0,15.5c0,0.9,0.2,1.2,1.2,1.2
	c6,0,12,0,18,0c0.9,0,1.2-0.3,1.2-1.2c0-5.2,0-10.4,0-15.6C479.7,69.7,479.6,69.3,479.6,69.1z"/>
<path d="M300.1,76c5,0,9.7,0,14.5,0c5.4,0,6.5,1.1,6.5,6.5c0,1.7-0.1,3.2-0.3,4.9c-0.2,1.4-1.2,2.4-2.6,2.7
	c-0.9,0.2-1.9,0.3-2.8,0.3c-4.7,0-9.5,0-14.3,0c-4.6,0-6.2-1.9-5.6-6.7c1.1-0.3,2.3-0.6,3.7-0.9c0,1.1,0,1.9,0,2.8
	c-0.1,0.8,0.2,1.2,1.1,1.2c5.5,0,11,0,16.5-0.1c0.1,0,0.3-0.1,0.6-0.1c0-2.2,0-4.5,0-6.9c-0.5,0-1-0.1-1.5-0.1
	c-4.7,0-9.4,0-14.1-0.1c-3.9-0.1-5.2-1.2-5.3-5.2c-0.1-1.9,0-3.6,0.2-5.5c0.2-1.9,1.2-2.8,3.1-3.2c0.8-0.1,1.6-0.2,2.3-0.2
	c4.3,0,8.6-0.1,12.9,0c1.1,0,2.3,0.1,3.4,0.4c1.8,0.5,3.2,3.3,2.5,5c-0.1,0.3-0.4,0.6-0.8,0.6c-0.8,0.3-1.7,0.5-2.8,0.8
	c0-1.2,0-2.3,0-3.4c-5.8,0-11.4,0-17.2,0C300.1,71.2,300.1,73.5,300.1,76z"/>
<path d="M400.3,65.8c0.1-0.1,0.3-0.1,0.4-0.1c5.9,0.1,11.8-0.1,17.7,0.3c5.4,0.4,9.1,4.4,9.6,9.8c0.2,2.2,0,4.5-0.6,6.6
	c-1.2,4.5-4.4,7.3-9.1,7.6c-6,0.4-12,0.3-18.1,0.6C400.3,82.1,400.3,73.9,400.3,65.8z M404.3,68.6c0,6.3,0,12.2,0,18.2
	c3.5,0,7,0.1,10.5,0c7.2-0.4,9.7-3.3,9.1-10.5c-0.3-3.6-2.1-6.2-5.6-6.7C413.7,68.8,409.1,68.8,404.3,68.6z"/>
<path d="M77.2,90.4c0-8.2,0-16.4,0-24.4c0.1-0.1,0.2-0.2,0.3-0.2c6.1,0.1,12.2,0,18.2,0.3c4,0.2,6.9,2.6,8.4,6.3
	c1.7,4.2,1.6,8.4-0.6,12.4c-2,3.7-5.3,5.4-9.4,5.5C88.7,90.5,83,90.4,77.2,90.4z M81.3,87.3c4.6-0.2,9-0.2,13.4-0.6
	c3-0.3,5.3-2.1,5.9-5.2c0.3-1.9,0.5-4,0.3-5.9c-0.5-4-2.8-6.2-6.7-6.6c-2.9-0.3-5.8-0.3-8.7-0.3c-4.1-0.1-4.1,0-4.1,4.1
	C81.3,77.6,81.3,82.3,81.3,87.3z"/>
<path d="M153.1,71.4c0,6.3,0,12.7,0,19.1c-1.2,0-2.4,0-3.6,0c0-8.2,0-16.3,0-24.4c1.4-0.3,2.6-0.1,3.7,0.9
	c5.6,5.2,11.3,10.2,17.1,15.3c0.9,0.8,1.9,1.6,2.5,2.2c0-1.6,0-3.4,0-5.3c0-3.9,0.1-7.7,0-11.6c0-1.3,0.3-1.9,1.7-1.7
	c0.6,0.1,1.3,0,2.1,0c0,8.3,0,16.4,0,24.5c-1.4,0.4-2.5,0.1-3.5-1c-6.5-6.1-13.1-12-19.6-18C153.4,71.5,153.2,71.5,153.1,71.4z"/>
<path d="M365.6,86.7c6,0,11.8,0,17.8,0c0-6.9,0-14,0-21.1c1.2,0,2.3-0.1,3.4,0.1c0.3,0.1,0.7,0.8,0.7,1.2c0.1,5,0.1,9.9,0,14.9
	c0,1.7-0.1,3.3-0.2,4.9c-0.3,2.2-1.2,3.1-3.4,3.5c-0.7,0.1-1.4,0.1-2.1,0.2c-4.9,0-9.8,0-14.7,0c-1,0-1.9-0.1-2.8-0.3
	c-1.2-0.3-2.1-1.1-2.5-2.3c-0.1-0.6-0.3-1.2-0.3-1.7c0-6.7,0-13.4,0-20.2c1.3,0,2.6,0,4.1,0C365.6,72.8,365.6,79.6,365.6,86.7z"/>
<path d="M139.3,65.8c0,1,0,1.8,0,2.8c-0.6,0-1.2,0.1-1.8,0.1c-5.4,0-10.9,0-16.3,0c-1.1,0-1.6,0.3-1.5,1.4c0.1,1.9,0,3.8,0,5.9
	c4,0,7.9,0,11.9,0c0,1.1,0,1.9,0,3c-3.9,0-7.8,0-11.8,0c0,2.8,0,5.4,0,8.1c6.5,0,13.1,0,19.6,0c0,1.2,0,2.1,0,3.2
	c-7.9,0-15.7,0-23.7,0c0-8.2,0-16.3,0-24.6C123.6,65.8,131.4,65.8,139.3,65.8z"/>
<path d="M212.7,90.5c2.5-4.7,5-9.1,7.4-13.5c1.8-3.3,3.6-6.6,5.4-10c0.5-0.9,1-1.3,2.1-1.2c0.5,0.1,1,0.1,1.4,0
	c1.2-0.2,1.9,0.4,2.5,1.4c4,7.3,8,14.5,12,21.7c0.2,0.4,0.4,0.8,0.7,1.4c-1.4,0-2.7,0.1-4-0.1c-0.3,0-0.8-0.5-1-0.8
	c-0.8-1.4-1.4-3-2.3-4.3c-0.3-0.5-1-1-1.6-1c-4.8-0.1-9.6-0.1-14.4,0c-0.6,0-1.2,0.5-1.5,0.9c-0.8,1.2-1.4,2.6-2,4
	c-0.4,1-1,1.5-2.2,1.4C214.5,90.4,213.8,90.5,212.7,90.5z M228.3,68.7c-2.3,4.3-4.3,8.3-6.5,12.4c4.5,0,8.7,0,13.1,0
	C232.6,77,230.5,73,228.3,68.7z"/>
<path d="M339,68.8c-3.9,0-7.4,0-11.1,0c0-1.1,0-2.1,0-3.1c8.7,0,17.5,0,26.3,0c0,1,0,1.9,0,3.1c-1.4,0-2.9,0-4.3,0
	c-1.9,0-3.6,0.1-5.5,0c-1-0.1-1.4,0.3-1.4,1.4c0.1,6.1,0,12.1,0,18.2c0,2.1,0,2.1-2.1,2.1c-0.6,0-1.2,0-2,0
	C339,83.1,339,76.1,339,68.8z"/>
<path d="M195.2,68.7c-3.9,0-7.4,0-11.2,0c0-1,0-1.9,0-2.9c8.8,0,17.6,0,26.5,0c0,1,0,1.8,0,2.9c-3.7,0-7.4,0-11.2,0
	c0,3.8,0,7.4,0,10.9c0,3.6,0,7.2,0,10.9c-1.4,0-2.6,0-4.1,0C195.2,83.3,195.2,76.1,195.2,68.7z"/>
<path d="M252.2,90.4c0-4.3,0-8.4,0-12.4c0-3.5,0-7.1,0-10.6c0-1,0.3-1.4,1.4-1.4c3.3,0.1,2.8-0.3,2.8,2.8c0,5.6,0,11.1,0,16.6
	c0,0.6,0,1.1,0,1.9c5,0,10,0,14.9,0c0,1.2,0,2.2,0,3.3C265,90.4,258.7,90.4,252.2,90.4z"/>
<path d="M442.9,90.1c-0.3,0.1-0.3,0.2-0.3,0.2c-3.7,0.4-3.7,0.4-3.7-3.3c0-6.5,0-13.1,0-19.6c0-1.3,0.3-1.7,1.7-1.7
	c2.8,0.1,2.5-0.3,2.5,2.5c0,6.8,0,13.5,0,20.4C442.9,89.1,442.9,89.6,442.9,90.1z"/>
<path class="st0" d="M145.3,26.2c0-5.5,0-10.9,0-16.4c0.6,0,1,0,1.5,0c6.9,0,13.8,0,20.6,0c4.7,0,8.4,3.6,8.4,8.3s-3.7,8.3-8.5,8.3
	c-6.9,0-13.8,0-20.6,0C146.4,26.3,145.9,26.2,145.3,26.2z"/>
<path class="st0" d="M282.6,34.4c-5.2,0-10,0-15.2,0c2.5-5.2,5-10.3,7.6-15.7C277.6,24,280,29.1,282.6,34.4z"/>
<path class="st0" d="M479.6,69c0.1,0.3,0.1,0.6,0.1,1c0,5.2,0,10.4,0,15.6c0,0.9-0.3,1.2-1.2,1.2c-6,0-12,0-18,0
	c-1,0-1.2-0.3-1.2-1.2c0-5.2,0-10.3,0-15.5c0-0.7,0-1.3,1-1.3c6.3,0,12.6,0,18.8,0.1C479.3,68.8,479.4,68.9,479.6,69z"/>
<path class="st0" d="M404.4,68.6c4.7,0.3,9.4,0.3,14,0.9c3.6,0.5,5.4,3.1,5.6,6.7c0.6,7.2-1.9,10.1-9.1,10.5c-3.4,0.2-6.9,0-10.5,0
	C404.4,80.7,404.4,74.8,404.4,68.6z"/>
<path class="st0" d="M81.4,87.3c0-5.1,0-9.8,0-14.5c0-4.2,0-4.2,4.1-4.1c2.9,0.1,5.8,0,8.7,0.3c4,0.4,6.3,2.6,6.7,6.6
	c0.2,1.9,0.1,4-0.3,5.9c-0.6,3.2-2.9,4.9-5.9,5.2C90.4,87.1,86,87.1,81.4,87.3z"/>
<path class="st0" d="M228.2,68.7c2.3,4.3,4.3,8.3,6.5,12.4c-4.3,0-8.5,0-13.1,0C223.9,77,225.9,73,228.2,68.7z"/>
</svg>
