<?xml version="1.0" encoding="utf-8"?>
<!-- Generator: Adobe Illustrator 22.0.0, SVG Export Plug-In . SVG Version: 6.00 Build 0)  -->
<svg version="1.1" id="Layer_1" xmlns="http://www.w3.org/2000/svg" xmlns:xlink="http://www.w3.org/1999/xlink" x="0px" y="0px"
	 viewBox="0 0 50 60" style="enable-background:new 0 0 50 60;" xml:space="preserve">
<style type="text/css">
	.st0{fill:#FFFFFF;}
</style>
<g>
	<path class="st0" d="M7.9,51.3c0-10.2,0-20.3,0-30.5c0-2.6,0-5.2,0-7.8c0-1.2,0-2.3,0-3.5c0-0.2,0-0.6,0-0.8C8,7.7,7.7,8.2,8.4,8.1
		c0.6-0.2,1.5,0,2.1,0c5,0,10,0,15,0c5.1,0,10.2,0,15.3,0c0.3,0,1.7-0.2,1.9,0c0.2,0.2,0,1.4,0,1.6c0,1.3,0,2.7,0,4c0,2.5,0,5,0,7.6
		c0,5.1,0,10.3,0,15.4c0,2.5,0,5,0,7.6c0,1.3,0,2.5,0,3.8c0,0.5,0,1.1,0,1.6c0,0.3,0.1,0.8,0,1.1c-0.2,0.6,0.1,0.4-0.5,0.5
		c-1.3,0.3-3,0-4.3,0c-1.4,0-2.9,0-4.3,0c-2.9,0-5.7,0-8.6,0C19.3,51.3,13.6,51.3,7.9,51.3z M22.7,40.7c-0.3-0.6-0.3-2-0.4-2.7
		c-0.1-0.9,0-1.7,0.2-2.6c0.4-1.6,1.7-3.2,3.4-3.3c3.1-0.3,4.6,5.5,5.3,7.7c0.5,1.5,1.1,3,2.4,4c0.5,0.3,1.3,0.9,1.9,0.5
		c0.6-0.4,0.5-1.6,0.6-2.2c0.4-4.1-0.8-7.7-2.4-11.5c-0.7-1.6-1.2-2.4-0.7-4.1c0.5-1.9,1.1-3.7,1.4-5.7c0.4-3.4-1.4-6.9-5.3-5.9
		c-1.7,0.4-3.4,1.5-4.9,2.5c-0.6,0.4-1.1,0.9-2,0.7c-1-0.2-1.6-0.8-2.7-0.8c-3.3,0-6.4,2.9-6.3,6.2c0,2.2,1.5,4.1,2.6,5.8
		c1.2,1.9,2.2,3.7,2.8,5.9c0.5,2.2,0.8,4.3,1.6,6.4c0.3,0.8,0.8,2.3,1.5,2.8c0.6,0.5,1.5,0.2,1.5-0.6 M38.1,38
		c0.4,2.9,1.1,7.4-2,9.2c-3.4,2-5.1-3.1-5.9-5.5c-0.6-1.5-1.1-3.1-1.8-4.6c-0.3-0.6-0.7-1.5-1.4-1.8c-1.1-0.5-1.4,0.5-1.5,1.4
		c-0.1,1.8,0,3.8,0.2,5.6c0.2,2,0.8,4.3,0.6,6.3c-0.1,0.9-0.2,0.9,0.9,1c1.1,0,2.2,0,3.2,0c2.2,0,4.3,0,6.5,0c1,0,2.2,0.2,3.2,0
		c0.6-0.1,0.6-0.1,0.7-0.7c0.2-0.9,0-2,0-3c0-1,0-2.1,0-3.1c0-7.4,0.3-14.8,0.3-22.3c0-2.3,0-4.5,0-6.8c0-1.2,0-2.3,0-3.5
		c0-1-0.3-1-1.3-1c-4.8,0-9.5,0-14.3,0c-2.8,0-5.6,0-8.4,0c-1.3,0-2.6,0-4,0c-0.8,0-2.7-0.4-3.1,0.4c-0.2,0.3,0,1.4,0,1.8
		c0,0.6,0,1.2-0.1,1.8c0,0.6-0.5,2.9,0.1,3.2c0.5,0.3,2.3-0.6,2.9-0.7c1.4-0.3,2.8-0.3,4.2-0.4c2.6-0.2,4.8-0.6,7.1-2.1
		c2-1.3,3.8-1.9,6.2-1.9c2.1,0,4.9,0.7,5.9,2.9c1,2.2,0.3,5,0,7.3c-0.2,1.3-0.4,2.5-0.7,3.7c-0.3,1.2-1.2,2.5-1,3.8
		c0.1,1.1,1.1,2.1,1.6,3.1c0.6,1.3,1.3,2.9,1.5,4.3 M14.2,33.6c-0.8-0.9-1.7-1.7-2.4-2.7c-0.3-0.4-1.1-2.1-1.6-1.6
		c-0.4,0.5-0.1,2.7-0.1,3.4c-0.1,1.4-0.1,2.9-0.1,4.3c0,2.5,0,5,0,7.5c0,1.4-0.2,2.9,0,4.3c0.1,0.9,0.4,0.8,1.3,0.8
		c2.6,0,5.2,0,7.8,0c0.4,0,2.6,0.2,2.7-0.2c0.1-0.3-1.9-1.9-2.2-2.2c-1.6-1.8-3.4-3.7-4.1-6.1c-0.3-1-0.5-2.1-0.6-3.1
		c0-0.6,0-1.2-0.1-1.7c-0.1-0.6-0.3-1-0.2-1.6"/>
	<path d="M22.9,41.3c0.1,0.8,0.8,3.6-0.8,3.2c-0.8-0.2-1.2-1.4-1.5-2.1c-0.4-1-0.7-2-1-3c-0.6-1.9-0.7-3.9-1.4-5.8
		c-0.7-2-1.9-3.7-3.1-5.5c-1.1-1.7-2.2-3.7-1.8-5.8c0.3-1.7,1.4-3.3,2.9-4.1c1.2-0.7,2.6-1.1,4-1c0.8,0.1,1.6,0.8,2.4,0.8
		c0.8,0,1.5-0.7,2.1-1.1c2.8-1.8,7.5-4.2,9.3,0.1c1.4,3.2-0.3,6.7-1.1,9.9c-0.3,1.5,0.3,2.5,0.9,3.8c0.8,1.8,1.7,3.7,2,5.7
		c0.3,1.7,0.3,3.5,0.3,5.3c-0.1,1.6-0.3,3.5-2.3,2.2c-1.7-1.1-2.2-2.9-2.8-4.6c-0.6-1.9-1.3-4.1-2.5-5.6c-1.3-1.7-3.1-1.9-4.7-0.4
		c-1.5,1.4-1.6,3.6-1.4,5.5"/>
	<path d="M38.1,37.9c-0.4-2.7-1.3-5.4-2.8-7.7c-1.3-2,0.2-4.1,0.7-6.2c0.3-1.5,0.6-3.1,0.7-4.6c0.2-2.3,0.5-5.4-1.7-6.9
		c-1.8-1.2-4.1-1.5-6.2-1.2c-1,0.2-2,0.4-3,0.9c-1.2,0.6-2.3,1.5-3.6,2.1c-2.6,1.1-5.2,0.8-7.9,1.1c-0.6,0.1-1.2,0.2-1.8,0.4
		c-0.6,0.1-1.4,0.6-2,0.6c-1.2,0-0.6-1.6-0.6-2.5c0-0.9,0.1-1.8,0.1-2.6c0-0.4-0.2-1.5,0.1-1.8c0.3-0.3,1.5-0.2,2-0.2
		c0.9,0,1.8,0,2.6,0c3.6,0,7.2,0,10.8,0c4.2,0,8.5,0,12.7,0c0.5,0,2.3-0.3,2.7,0.1c0.4,0.4,0.2,1.4,0.2,2c0,2.2,0,4.4,0,6.6
		c0,8,0,16-0.2,23.9c-0.1,1.7-0.1,3.4-0.1,5.1c0,0.5,0.3,2.1-0.1,2.5c-0.5,0.5-2.1,0.2-2.8,0.2c-2,0-4,0-5.9,0c-1.1,0-2.2,0-3.2,0
		c-0.5,0-2.1,0.2-2.5-0.1c-0.3-0.3,0-1.4,0-1.8c-0.1-1-0.2-2-0.3-3c-0.2-2-0.4-3.9-0.4-5.9c0-0.9-0.3-4.9,1.6-3.4
		c1.1,0.8,1.6,2.3,2,3.6c0.9,2.5,1.6,5.9,3.5,7.8c1.1,1.1,2.7,0.9,3.8,0c1.7-1.4,1.8-3.8,1.9-5.8"/>
	<path d="M21.5,49.6c-0.8,0.2-1.9,0.1-2.8,0.1c-1.1,0-2.3,0-3.4,0c-1.1,0-2.3,0-3.4,0c-0.7,0-1.8,0.3-2.1-0.4c-0.3-0.7,0-2.1,0-2.8
		c0-1.3,0-2.5,0-3.8c0-2.3,0-4.7,0-7c0-1.2,0.1-2.3,0.2-3.5c0-0.5-0.3-2.7,0.1-3c0.5-0.3,1.3,1.4,1.6,1.7c0.7,0.9,1.6,1.6,2.3,2.6
		c0.8,1.2,0.7,2.7,0.9,4.2c0.2,1.3,0.3,2.7,0.7,3.9c0.6,1.7,1.8,3.2,2.9,4.5c0.6,0.7,1.1,1.3,1.8,1.9C20.6,48.3,22.1,49.2,21.5,49.6
		z"/>
</g>
</svg>
